<svg xmlns="http://www.w3.org/2000/svg" viewBox="0 0 128 128"><defs><style>.cls-1{fill:#fff;}</style></defs><g id="katman_2" data-name="katman 2"><g id="katman_1-2" data-name="katman 1"><path class="cls-1" d="M89.14,91.63c.58.76,1.08,1.58,1.82,2.67-3.7.76-6.44,1-8.94-2.3C67.78,73.14,53.34,54.45,39,35.69c-.53-.69-.93-1.48-1.65-2.63,4.18-.87,7-.54,9.56,2.93C60.81,54.65,75,73.1,89.14,91.63Z"/><path class="cls-1" d="M64,0a64,64,0,1,0,64,64A64,64,0,0,0,64,0Zm40.38,103.82c-6.64,0-13.29-.07-19.94.07a6,6,0,0,1-5.33-2.78C73.36,93.46,67.5,85.9,61.67,78.31c-.68-.88-1.41-1.72-2.54-3.1-1.65,1.84-3,3.32-4.31,4.81-6.42,7.26-12.74,14.59-19.31,21.7-1.11,1.2-3.21,1.76-4.95,2.06-2,.34-4.2.08-7.4.08,1.59-2,2.45-3.24,3.43-4.35C35,90,43.35,80.38,51.88,71c1.87-2.06,1.61-3.44.06-5.43-9.67-12.45-19.24-25-28.84-37.46-.78-1-1.5-2.09-2.68-3.74,2.06-.1,3.36-.21,4.65-.21,6.42,0,12.84.06,19.26-.06a5.94,5.94,0,0,1,5.41,2.67c4.73,6.44,9.59,12.78,14.43,19.15,1.07,1.41,2.22,2.75,3.69,4.57,3.48-4,6.7-7.71,9.92-11.4,3-3.48,6.51-6.67,9-10.48,3.61-5.47,8.55-4.59,14.64-4.22-2.45,2.87-4.35,5.12-6.29,7.35-6.42,7.39-12.76,14.86-19.36,22.09-2.41,2.64-2.53,4.35-.22,7.29,10.36,13.19,20.4,26.63,30.55,40,.45.6.79,1.3,1.46,2.39C106.26,103.61,105.32,103.81,104.38,103.82Z"/></g></g></svg>