<svg xmlns="http://www.w3.org/2000/svg" viewBox="0 0 1355.68 275.98"><defs><style>.cls-1{fill:#00bc7d;}.cls-2{fill:#f7941d;}.cls-3{fill:#232323;}.cls-4{fill:#fff;}.cls-5{fill:#ee534f;}.cls-6{fill:#00e28b;}.cls-7{fill:#00935e;}</style></defs><g id="katman_2" data-name="katman 2"><g id="Layer_1" data-name="Layer 1"><path class="cls-1" d="M378.77,67.72c-.65,1.45-1.38,2.88-1.92,4.37-5.3,14.76-10.65,29.51-15.77,44.33-1.33,3.83-3.52,5.51-7.56,5.35-5.21-.21-10.43-.17-15.65-.2-3.95,0-6.36-2-7.67-5.63-4.6-12.7-9.37-25.33-13.79-38.08C315,73.8,314.48,69.45,313,65c-.45,3-1.23,5.94-1.3,8.92-.31,13.77-.46,27.53-.58,41.3-.05,5.77-.47,6.43-6.22,6.48s-11.55.1-17.29-.31c-6.62-.47-7.68-1.9-7.68-8.32q0-52.36-.08-104.72c0-5.59.28-6.36,5.75-6.66,7.8-.43,15.63-.31,23.44-.34,3.8,0,5.54,2.66,6.73,5.7,3.91,10,7.73,20.11,11.6,30.16Q336,59.57,344.64,81.88A17.34,17.34,0,0,0,345.9,84c1.3-3.41,2.42-6.38,3.56-9.34,8.69-22.52,17.48-45,26-67.6,1.5-4,3.8-5.7,7.82-5.73,7,0,14-.15,21-.13,6.56,0,7.4.87,7.41,7.31q0,45,0,90c0,5.73.17,11.45.24,17.18.06,4.64-1,6-5.62,6.11-7.13.14-14.27-.1-21.4-.08-3.72,0-5-1.73-5-5.33.12-15.27.06-30.54.05-45.81,0-.89-.13-1.78-.19-2.68Z"/><path class="cls-1" d="M639.45,69.23c0-21.5,0-42,0-62.55,0-2.88.94-4.81,4.16-4.85,7.39-.09,14.79-.15,22.18-.22,3.52,0,4.8,2,4.8,5.17s0,6.54,0,9.81q.09,49.29.19,98.57c0,5.65-.72,6.69-6.28,6.53q-13.34-.37-26.63-1.53c-1.59-.14-3.6-1.86-4.43-3.39-8.5-15.57-16.82-31.24-25.11-46.93-1.95-3.68-3.62-7.51-6-12.48a32.7,32.7,0,0,0-.94,4.69q-.29,22.49-.46,45c0,3-.12,6,0,9,.17,3.86-1.85,5.56-5.43,5.63-7,.13-14,.27-21,.13-5.39-.11-5.8-.71-5.8-6.08q0-48.87,0-97.75c0-3.82,0-7.63,0-11.45,0-3.11,1.33-5,4.55-5q13-.07,25.92.06c3.68,0,5.44,2.61,7,5.53q13.79,26.06,27.66,52.07C635.51,62.29,637.33,65.42,639.45,69.23Z"/><path class="cls-1" d="M489.48,121.7c-33.5,0-60.22-27-60.22-60.77,0-34.15,28.68-58.71,57.59-59.68C523.4,0,550.41,28.44,550.44,61.65S523.3,121.74,489.48,121.7Zm.62-90.18c-20.9-.47-29.92,16.67-30.07,30.06-.21,17.64,12.29,30.06,29.85,30.15,17.35.09,29.34-12.25,29.27-30.12C519.08,44.32,506.74,31.53,490.1,31.52Z"/><path class="cls-1" d="M1335.31,57c1.81,1.09,3.08,1.82,4.32,2.59,11,6.85,16.79,16.27,16,29.63-.79,12.85-6.74,22.15-18.29,27.38a50.67,50.67,0,0,1-17.73,4.61c-14.79.79-29.63.64-44.46.65-7,0-7.23-.48-7.23-7.18q0-53,0-105.95c0-6.76.55-7.48,7.56-7.44,14.4.08,28.82.1,43.21.65,19.18.75,33.18,19.68,28.08,38-1.08,3.9-3.86,7.38-6.13,10.87C1339.24,53,1337.32,54.73,1335.31,57ZM1309,93.51c1.78,0,3.56,0,5.34,0,5.72-.12,8.47-2.47,9.56-8.1s-.64-10.11-5.79-11.54-10.72-1.69-16.13-2.11c-.76-.06-2.3,1.76-2.42,2.83a77.15,77.15,0,0,0-.14,9.38C1299.52,94.94,1298,93.37,1309,93.51ZM1299.37,38c0,10.51.92,11.24,11.61,9.23.54-.1,1.08-.18,1.61-.33a7.31,7.31,0,0,0,5.75-6.64c.87-6.82-1.86-10.59-8.79-11C1297.22,28.39,1299.63,27.39,1299.37,38Z"/><path class="cls-1" d="M994.06,81.83a76,76,0,0,0-1,8.18c-.13,8.85-.17,17.71,0,26.56.07,3.71-1.44,5.34-5.06,5.15-7.36-.39-14.74-.64-22.07-1.28-3.22-.29-4.25-2.56-4.24-5.85.11-35,.07-70,.07-105.06,0-7.19.1-7.88,7.06-8,14.38-.19,29-1.21,43.11.83,26.5,3.83,38.88,22.06,33.22,50.59a31.91,31.91,0,0,1-17.36,23.07,5.36,5.36,0,0,0-1,.7,5.72,5.72,0,0,0-.65,1.09c2.71,4.42,5.49,9.08,8.4,13.65,5,8,10.31,15.77,15.21,23.81,3.14,5.13,2.43,6.33-3.61,6.44-7.27.13-14.56.21-21.79-.31a9.25,9.25,0,0,1-6.19-3.69c-7-10.72-13.68-21.7-20.46-32.58-.75-1.19-1.54-2.35-2.31-3.52ZM993,41.62h0c0,2.58.15,5.18,0,7.75-.25,3.5,1.16,5.12,4.72,4.85,1.09-.08,2.19,0,3.29,0,12.75-.18,15.41-3,14.92-15.51-.16-4.23-2.13-7.26-6.16-8.1a78.5,78.5,0,0,0-13.8-1.33c-.94,0-2.62,1.82-2.77,3A75,75,0,0,0,993,41.62Z"/><path class="cls-1" d="M1198.33,105.31c-5.21,0-10.42.09-15.63,0-3.2-.08-5.26,1.1-6,4.27-.23.92-.6,1.81-.88,2.72-3,9.65-1.27,9.34-12.44,9.58-5.62.12-11.25,0-16.87-.13-5.36-.1-6.19-1.19-4.48-6.15,4.35-12.63,8.83-25.22,13.18-37.85q12-34.81,23.9-69.64c2.16-6.28,2.46-6.59,9-6.74,6.31-.14,12.63-.1,18.94-.09,4.71,0,7.77,1.82,9.43,6.7q18.16,53.22,36.78,106.28c1.15,3.31,1,5.61-2.85,6.39a52.83,52.83,0,0,1-8.43,1.27c-4.1.15-8.22-.14-12.34-.23-5.65-.13-7.44-1.46-9.15-6.87-3-9.41-3-9.4-13-9.18-3,.07-6,0-9.06,0Zm.31-61.47c-.6.5-1.06.7-1.17,1-3.3,9.66-6.61,19.32-9.81,29-.75,2.28.5,3.27,2.79,3.26,4.8,0,9.6-.09,14.4,0,3.26.08,3.72-1.37,2.81-4.07-1.51-4.52-3-9.07-4.35-13.63C1201.74,54.36,1200.24,49.2,1198.64,43.84Z"/><path class="cls-1" d="M874.18,62.21q0-26.37,0-52.74c0-6.24,1.34-8,7.59-8.06q27.56-.3,55.14,0c6.48.06,7,1,7,7.6,0,4.22-.14,8.44-.05,12.66.13,5.69-1,7.19-6.7,7.33-8.64.22-17.29.3-25.92.06-3.94-.11-5.55,1.12-5.27,5.07a69.58,69.58,0,0,1-.23,7.35c-.19,5.51.28,6,6,6,8.36,0,16.72.19,25.08.13,3.85,0,5,1.95,5,5.35-.06,5.45-.11,10.9,0,16.35.06,3-1.15,4.83-4.13,5-7.52.38-15,.75-22.58.8-8.71.06-8.6-.08-9.07,8.47-.61,11.29-1.12,9.91,9.87,10,7,0,14,0,21,0,5,0,6.48,1.35,6.72,6.18.27,5.57.3,11.16.44,16.75.09,3.49-1.39,5.27-5.12,5.25q-29.84-.11-59.66,0c-3.89,0-5.23-1.73-5.2-5.53C874.25,98.18,874.18,80.19,874.18,62.21Z"/><path class="cls-1" d="M729.79,123.3c-16.65.33-29.65-5-40.15-16.32-4-4.33-4.08-5.4,0-9.92,3.2-3.56,6.61-6.94,9.74-10.55,2.63-3,5.07-3.2,8-.43,4.31,4.08,8.93,7.87,15.1,8.58a30.57,30.57,0,0,0,9.74-.31c3.29-.7,6.68-2,6.89-6.4.23-5.09-.77-6.7-5.84-9-8.09-3.73-16.31-7.22-24.18-11.36-18.42-9.69-25.16-30-16.11-48.1C699.05,7.25,709.92,2,722.8.39c15.93-2,29.33,3.74,41,14.17,2.77,2.47,3.23,4.71.68,7.65-3.86,4.44-7.62,9-11.17,13.64-2.2,2.9-4,2.68-6.85.76A69.43,69.43,0,0,0,734,29.69a11.77,11.77,0,0,0-11.76,1.42c-3.76,2.76-4,7.64-.34,10.45A46.78,46.78,0,0,0,729.78,46c7.38,3.61,15,6.8,22.2,10.71,13,7,18.64,18.1,17.8,32.84-.78,13.8-7.46,23.34-19.69,29.31C743.33,122.16,736.16,123.84,729.79,123.3Z"/><path class="cls-1" d="M801.69,74.72c0-13.64-.1-27.27.07-40.9,0-3.55-1.06-4.82-4.69-4.77-5.19.08-10.39-.36-15.58-.62-2.87-.14-4.08-1.69-4-4.54.12-5.86.12-11.72.11-17.58,0-2.79,1.11-4.36,4.08-4.48s5.73-.58,8.6-.58q29-.09,58.07,0c10.19,0,10.44.33,10.26,10.33-.06,3.41,0,6.82,0,10.23,0,5.41-1.09,6.82-6.59,7.16-4.1.25-8.23.14-12.35.16-5.75,0-5.95.13-5.95,6q0,39.27.13,78.53c0,7.46-.46,8.15-8.11,8.25-6,.07-12.07-.07-18.11-.26-5.33-.18-5.89-.81-5.9-6C801.68,102,801.7,88.35,801.69,74.72Z"/><path class="cls-1" d="M1065.28,62.59q0-26.18,0-52.35c0-6.89,1.73-8.71,8.72-8.93,5.35-.17,10.71-.14,16.06-.1,6.45.06,7.43,1.06,7.43,7.38q0,39.67,0,79.36c0,5.4.11,5.55,5.47,5.57,7.55,0,15.1,0,22.65,0,4.93,0,7.2,1.87,7.51,6.7.37,5.56.33,11.16.35,16.75,0,3.07-1.45,4.78-4.79,4.76q-29.22-.14-58.46-.19c-3.6,0-5-1.74-5-5.38C1065.35,98.32,1065.28,80.46,1065.28,62.59Z"/><path class="cls-2" d="M1141.55,275.41c-29.47,0-53.16-23.34-53.1-52.32.06-27.61,24.31-51.45,52.44-51.55,28.34-.11,52.09,23.59,52.11,52A51.53,51.53,0,0,1,1141.55,275.41Zm-.47-77c-15.1,0-25.61,10.38-25.63,25.35,0,15.29,10.58,26.17,25.74,25.74,13.93-.38,24.71-9.27,24.69-24.9C1165.86,209.24,1155.7,198.44,1141.08,198.42Z"/><path class="cls-2" d="M784.38,224.13c0-14.31,0-28.61,0-42.91a15.26,15.26,0,0,1,.85-6c.59-1.32,2.41-3,3.69-3,15.07-.15,30.19-1.1,45.09,2.09a47.38,47.38,0,0,1,37.05,41.42c1.2,12.2-.22,23.8-6.58,34.66-9.2,15.69-23.63,22.23-41,23.14-11.35.59-22.76,0-34.14.18-3.88.07-5-1.53-5-5.07.09-14.85,0-29.7,0-44.55Zm26.33-.8h-.39c0,7.49.1,15,0,22.45-.06,3,.93,4.79,4.15,4.61,4.37-.24,8.83-.15,13.08-1,8.35-1.69,14.17-6.5,15.65-15.22a67.81,67.81,0,0,0,1.21-13.75c-.64-15.53-8.72-23.28-24.34-23.9-1.64-.06-3.29,0-4.92-.18-3.17-.34-4.5.91-4.44,4.14C810.79,208.09,810.71,215.71,810.71,223.33Z"/><path class="cls-2" d="M687,208.24c-.46,11.69,0,23.51-1.6,35-2.26,16.1-11.48,27.55-28,31s-31.79.89-43.16-13.14c-5.94-7.32-8.22-16-8.36-25.19-.29-18.81-.19-37.62-.13-56.43,0-5.39,2.2-7.38,7.55-7.45,4.25-.05,8.51.08,12.76,0,3-.07,4.72,1.29,5.25,4.07a37.25,37.25,0,0,1,.71,6.48c.12,17.31,0,34.63.29,51.93.17,10.36,3.64,15.18,15.78,14.89,7.06-.17,11.88-5.74,11.94-14.8.09-16.49,0-33,0-49.48,0-1.63,0-3.27,0-4.91.06-6.7,1.47-8.11,8.24-8.16,3.84,0,7.69-.07,11.53,0,5,.1,6.68,1.7,6.72,6.68.07,9.81,0,19.63,0,29.44Z"/><path class="cls-2" d="M315.52,172c11.4-.25,20.77,4.36,29.09,11.63,2.67,2.34,2.85,4.62.47,7.37a116,116,0,0,0-7.84,10c-2.25,3.25-4.19,3.91-7.51,1.1-4.22-3.58-9.05-6.15-15-5.48-3.24.37-6,1.33-6.89,4.75-.95,3.7,1.52,5.45,4.43,6.83,7.43,3.52,15,6.76,22.24,10.65,11.14,6,17.43,18,15.74,29.12a31.15,31.15,0,0,1-24.41,26.19c-16.58,3.54-31-.44-43-12.45-3.73-3.72-3.74-4.73-.4-8.55,2.71-3.08,5.35-6.24,8.32-9.05a4.78,4.78,0,0,1,4.09-.69,21.37,21.37,0,0,1,6.14,3.27c5.45,4.13,11.66,4.23,18,3.92,2.83-.14,4.4-1.62,4.7-4.21s1.17-5.45-2.24-7.09q-11.31-5.42-22.5-11.08c-17.37-8.77-19.94-27-13.52-40.08C291.46,175.91,302.64,172.13,315.52,172Z"/><path class="cls-2" d="M1320.52,171.11a46,46,0,0,1,30,12.82c2.64,2.46,2.67,4.8.36,7.44-3,3.39-5.72,7-8.89,10.17-.8.8-3,.9-4.26.43-3.18-1.24-6-3.49-9.26-4.37a25.1,25.1,0,0,0-10.72-.89c-5,.94-6.13,5.83-2.26,9.11a44.59,44.59,0,0,0,8.67,5.34c5.24,2.66,10.7,4.89,15.91,7.6,12.92,6.73,17,17.81,15.19,31.55-1.38,10.8-10.56,20.91-23,23.49-15.53,3.23-30.14.78-42.25-10.45-5.22-4.83-5.21-6.56-.44-11.82,2.39-2.64,4.89-5.17,7.21-7.86,1.82-2.11,3.39-2.15,5.5-.28,6.08,5.42,13.07,8.11,21.47,7.31,3.89-.36,5.73-2.25,6.5-5.58s-1.15-5.15-3.85-6.42c-6.81-3.21-13.75-6.17-20.45-9.6-13.85-7.1-19.33-17.59-17.52-32.84a25.57,25.57,0,0,1,18.5-21.19C1311.51,173.83,1316,172.44,1320.52,171.11Z"/><path class="cls-2" d="M489.69,234.84c0,11,0,22.08,0,33.13,0,5-.7,5.68-5.71,5.71-5.35,0-10.71-.08-16.06,0-2.72,0-4.13-1-4.19-3.73-.08-3-.28-6-.29-9-.08-19.35-.11-38.71-.19-58.07,0-6.12-.1-6.12-6.42-6.53-3.42-.22-6.85-.37-10.26-.72-2.63-.27-4.16-1.55-4-4.56.2-4.35,0-8.72.07-13.08,0-3.83,2.1-5.89,5.88-5.9q28-.09,56,0c4,0,5.68,2.9,6,6.13a74.66,74.66,0,0,1,0,14.26c-.14,1.37-2.41,3.36-3.93,3.59-3.62.54-7.38.24-11.08.21-5.29,0-5.7.26-5.72,5.39,0,11,0,22.09,0,33.13Z"/><path class="cls-2" d="M966.43,224.06q0-22.06,0-44.14c0-6.28,1.51-7.76,7.7-7.84,4.12,0,8.23-.07,12.34,0,4.5.09,6.27,1.72,6.41,6.17.16,4.9.07,9.81.07,14.71q0,37.61,0,75.2c0,5.46,0,5.48-5.43,5.51-5.62,0-11.25-.14-16.86,0-3.27.11-4.29-1.18-4.26-4.31C966.5,254.3,966.44,239.18,966.43,224.06Z"/><rect class="cls-1" x="0.03" y="0.87" width="205.29" height="274.54"/><path class="cls-3" d="M145.12,80.91a23.34,23.34,0,1,1-39.23-25.27c-1.31-.1-2.65-.16-4-.16a49.53,49.53,0,1,0,43.23,25.43Z"/><path class="cls-3" d="M101.89,31.16a73.8,73.8,0,1,0,73.8,73.8A73.78,73.78,0,0,0,101.89,31.16Zm0,133.42A59.62,59.62,0,1,1,161.54,105,59.64,59.64,0,0,1,101.89,164.58Z"/><path class="cls-4" d="M148.57,67.84a59.62,59.62,0,1,0,13,37.12A59.62,59.62,0,0,0,148.57,67.84Zm-46.68,86.58a49.47,49.47,0,0,1,0-98.94c1.35,0,2.69.06,4,.16a23.15,23.15,0,0,0-4,13.06,23.33,23.33,0,0,0,43.23,12.21,49.43,49.43,0,0,1-43.23,73.51Z"/><path class="cls-3" d="M178.58,212.18v.45A17.22,17.22,0,0,1,175,222.85a80.64,80.64,0,0,1-28.41,23.9c-.35.16-.67.35-1,.51a94.42,94.42,0,0,1-43.67,9.45,94.42,94.42,0,0,1-43.67-9.45c-.35-.16-.67-.35-1-.51a80.38,80.38,0,0,1-28.41-23.9,17.22,17.22,0,0,1-3.57-10.22v-.45c.16-15.11,14.12-25.65,28.33-23.58a24.49,24.49,0,0,1,5.63,1.47,142.41,142.41,0,0,0,29.39,8.34c1,.19,2.14.35,3.22.48a76.46,76.46,0,0,0,20.2,0,138.3,138.3,0,0,0,32.61-8.82C160.53,183.81,178.39,195.06,178.58,212.18Z"/><path class="cls-4" d="M88.59,198.41a41.11,41.11,0,0,1-22.4,17.79c-7.5-6.19-11-17.85-12.62-27.6a24.49,24.49,0,0,1,5.63,1.47A142.41,142.41,0,0,0,88.59,198.41Z"/><path class="cls-4" d="M116.68,198.41a41.07,41.07,0,0,0,22.39,17.79c7.51-6.19,11-17.85,12.62-27.6a24.42,24.42,0,0,0-5.62,1.47A142.41,142.41,0,0,1,116.68,198.41Z"/><path class="cls-5" d="M146.6,246.75c-.35.16-.67.35-1,.51a94.42,94.42,0,0,1-43.67,9.45,94.42,94.42,0,0,1-43.67-9.45c-.35-.16-.67-.35-1-.51,7.22-9.59,24.5-16.33,44.69-16.33S139.38,237.16,146.6,246.75Z"/><rect class="cls-1" x="0.06" y="0.87" width="205.29" height="274.54"/><path class="cls-6" d="M74.15,54.15C61.2,48.39,49,58.5,49,72.53c0,10,7.44,18.72,17.76,18.72,11,0,17.29-10.4,17.29-20.43C84.09,63.55,81,57.16,74.15,54.15Z"/><path class="cls-6" d="M177.36,225.51c-13-5.77-25.11,4.34-25.11,18.38,0,10,7.44,18.71,17.75,18.71,11,0,17.3-10.4,17.3-20.42C187.3,234.91,184.25,228.52,177.36,225.51Z"/><path class="cls-6" d="M63.76,196.5c-10.54-9.48-25.22-3.62-29.56,9.73-3.09,9.53,1.29,20.09,11.11,23.28C55.79,232.92,65,225,68.06,215.43,70.31,208.51,69.38,201.49,63.76,196.5Z"/><path class="cls-6" d="M186.08,22.35c-10.54-9.49-25.22-3.63-29.56,9.72-3.09,9.54,1.3,20.1,11.11,23.28,10.49,3.41,19.66-4.55,22.76-14.08C192.63,34.36,191.71,27.34,186.08,22.35Z"/><path class="cls-7" d="M53.49,253.74c-1.75-6.82-9.44-8.43-14.9-4.09-3.9,3.09-5,8.67-1.8,12.68,3.4,4.29,9.38,3.52,13.28.43C52.9,260.51,54.45,257.35,53.49,253.74Z"/><path class="cls-7" d="M32.81,172.22c-2.53-9.86-13.63-12.18-21.52-5.92-5.64,4.47-7.21,12.52-2.61,18.32,4.92,6.2,13.56,5.09,19.19.62C32,182,34.19,177.43,32.81,172.22Z"/><path class="cls-7" d="M115.91,245.89c-2.53-9.86-13.63-12.18-21.52-5.92-5.64,4.47-7.21,12.52-2.61,18.32,4.92,6.2,13.56,5.09,19.19.62C115.06,255.67,117.29,251.1,115.91,245.89Z"/><path class="cls-7" d="M138,.87H121.62a11.23,11.23,0,0,0-.71,4c0,5,3.72,9.36,8.88,9.36,5.51,0,8.64-5.2,8.64-10.22A11,11,0,0,0,138,.87Z"/><path class="cls-7" d="M26.82,64.7c-2.53-9.85-13.63-12.17-21.53-5.92A13.79,13.79,0,0,0,.06,68.26a11.83,11.83,0,0,0,0,2.38,12.25,12.25,0,0,0,2.63,6.47c4.92,6.2,13.56,5.08,19.19.61C26,74.48,28.2,69.92,26.82,64.7Z"/><path class="cls-7" d="M169.49,112.94c-1.75-6.83-9.45-8.44-14.92-4.1-3.9,3.1-5,8.68-1.8,12.7,3.4,4.29,9.39,3.52,13.3.42C168.9,119.72,170.45,116.55,169.49,112.94Z"/><path class="cls-7" d="M194.65,197.07c-1.41-5.48-7.59-6.78-12-3.29a7.23,7.23,0,0,0-1.45,10.2c2.73,3.45,7.54,2.83,10.68.34C194.18,202.52,195.42,200,194.65,197.07Z"/><path class="cls-7" d="M89.5,10.48c-5.17-8.93-16.65-8.16-22.64.11C62.58,16.5,63.25,24.8,69.33,29.2c6.5,4.71,14.64,1.25,18.91-4.66C91.35,20.26,92.28,15.19,89.5,10.48Z"/><path class="cls-3" d="M145.88,72.71a23.34,23.34,0,1,1-39.23-25.27c-1.31-.1-2.65-.16-4-.16a49.47,49.47,0,1,0,49.49,49.48A49,49,0,0,0,145.88,72.71Z"/><path class="cls-3" d="M102.66,23a73.8,73.8,0,1,0,73.8,73.8A73.79,73.79,0,0,0,102.66,23Zm0,133.42a59.61,59.61,0,1,1,59.65-59.62A59.64,59.64,0,0,1,102.66,156.38Z"/><path class="cls-4" d="M149.33,59.64a59.61,59.61,0,1,0,13,37.12A59.54,59.54,0,0,0,149.33,59.64Zm-46.67,86.58a49.47,49.47,0,0,1,0-98.94c1.34,0,2.68.06,4,.16a23.34,23.34,0,1,0,39.23,25.27,49,49,0,0,1,6.27,24.05A49.46,49.46,0,0,1,102.66,146.22Z"/><path class="cls-3" d="M179.35,204v.45a17.16,17.16,0,0,1-3.58,10.22,80.52,80.52,0,0,1-28.4,23.9c-.35.16-.67.35-1,.51a94.42,94.42,0,0,1-43.67,9.45A94.45,94.45,0,0,1,59,239.06c-.35-.16-.67-.35-1-.51a80.35,80.35,0,0,1-28.4-23.9A17.16,17.16,0,0,1,26,204.43V204c.16-15.11,14.12-25.66,28.34-23.58A24.42,24.42,0,0,1,60,181.87a142.59,142.59,0,0,0,29.39,8.34c1.06.19,2.14.35,3.23.48a76.39,76.39,0,0,0,20.19,0,138.38,138.38,0,0,0,32.62-8.82C161.3,175.61,179.16,186.85,179.35,204Z"/><path class="cls-4" d="M89.35,190.21A41.07,41.07,0,0,1,67,208c-7.51-6.19-11-17.85-12.62-27.6A24.42,24.42,0,0,1,60,181.87,142.59,142.59,0,0,0,89.35,190.21Z"/><path class="cls-4" d="M117.44,190.21A41.11,41.11,0,0,0,139.84,208c7.51-6.19,11-17.85,12.62-27.6a24.49,24.49,0,0,0-5.63,1.47A142.41,142.41,0,0,1,117.44,190.21Z"/><path class="cls-5" d="M147.37,238.55c-.35.16-.67.35-1,.51a94.42,94.42,0,0,1-43.67,9.45A94.45,94.45,0,0,1,59,239.06c-.35-.16-.67-.35-1-.51,7.22-9.59,24.5-16.33,44.7-16.33S140.15,229,147.37,238.55Z"/><path class="cls-1" d="M238.59,276c-2.7-88.54-2.63-178.51-.3-267.06l.3-8.61.31,8.61c2.33,88.55,2.4,178.52-.31,267.06Z"/></g></g></svg>