<svg xmlns="http://www.w3.org/2000/svg" viewBox="0 0 128 128"><defs><style>.cls-1{fill:#fff;}</style></defs><g id="katman_2" data-name="katman 2"><g id="katman_1-2" data-name="katman 1"><path class="cls-1" d="M78.8,64A14.72,14.72,0,1,1,64.09,49.28,14.79,14.79,0,0,1,78.8,64Z"/><path class="cls-1" d="M64,0a64,64,0,1,0,64,64A64,64,0,0,0,64,0Zm44.09,78.76c0,4.47-.28,9-1.84,13.23-3.13,8.6-9.36,13.57-18.25,15.26-5.41,1-10.92.85-16.4.88q-10.95,0-21.91-.09c-4.47-.06-8.95-.25-13.24-1.74C27.67,103.25,22.62,97,20.86,88c-1-5.32-.8-10.73-.89-16.11,0-2.66,0-5.32,0-8h-.13C20,57.6,20,51.3,20.27,45c.22-5.5,1.54-10.71,4.89-15.22a23.11,23.11,0,0,1,15-9c5.39-1,10.85-.83,16.3-.87q11.1-.07,22.21.09c4.37.06,8.75.26,13,1.7C100,24.54,105.1,30.44,107.1,39a56.89,56.89,0,0,1,1,12.76Q108.19,65.28,108.09,78.76Zm-17.57-49a24.19,24.19,0,0,0-9.17-1.71c-5.75-.14-11.5-.21-17.26-.32v.11c-3.67,0-7.34-.11-11,0a90.29,90.29,0,0,0-11.76.84c-6.22,1-10.48,4.72-12.14,10.92a30.16,30.16,0,0,0-1,7.07c-.18,8.14-.23,16.3-.24,24.45,0,5.21-.15,10.45.82,15.6,1,5.5,4,9.54,9.32,11.66A24.1,24.1,0,0,0,46.76,100q12.81.17,25.64.21c4.81,0,9.64.1,14.39-.81,6.09-1.16,10.36-4.6,12.09-10.65A29.64,29.64,0,0,0,100,81.16q.27-14,.2-28.08a81.21,81.21,0,0,0-.81-11.77A14.31,14.31,0,0,0,90.52,29.76ZM64.05,86.67A22.67,22.67,0,1,1,86.73,64.06,22.61,22.61,0,0,1,64.05,86.67ZM87.62,45.75A5.32,5.32,0,1,1,93,40.43,5.35,5.35,0,0,1,87.62,45.75Z"/></g></g></svg>