<svg xmlns="http://www.w3.org/2000/svg" viewBox="0 0 128 128"><defs><style>.cls-1{fill:#fff;}</style></defs><g id="katman_2" data-name="katman 2"><g id="katman_1-2" data-name="katman 1"><path class="cls-1" d="M128,64A64,64,0,1,1,64.05,0,64,64,0,0,1,128,64ZM99.14,99.49c0-3.36,0-6.62,0-9.88,0-8.34,0-16.68-.17-25-.13-5.54-3.41-9.68-8.69-11.42a27.06,27.06,0,0,0-14.58-.49,11.9,11.9,0,0,0-6.74,4c-.36.45-.7.92-1.29,1.71v-6.2h-13V99.47H68V97.58c0-8.72,0-17.44,0-26.15,0-5.13,4-8.39,9.83-8.29,4.36.07,7.54,3.66,7.5,8.47,0,6.26-.12,12.51-.16,18.77,0,3,0,6,0,9.11ZM45.78,52.1H29V99.46H45.78Zm0-15.09a8.45,8.45,0,1,0-8.51,8.44A8.44,8.44,0,0,0,45.82,37Z"/></g></g></svg>